<svg width="35" height="35" viewBox="0 0 35 35" fill="none" xmlns="http://www.w3.org/2000/svg">
<rect width="35" height="35" rx="17.5" fill="#194231"/>
<path d="M17.5 17.1355C18.2049 17.1355 18.8065 16.8864 19.3047 16.3881C19.803 15.8898 20.0521 15.2883 20.0521 14.5834C20.0521 13.8786 19.803 13.277 19.3047 12.7787C18.8065 12.2805 18.2049 12.0313 17.5 12.0313C16.7952 12.0313 16.1936 12.2805 15.6954 12.7787C15.1971 13.277 14.948 13.8786 14.948 14.5834C14.948 15.2883 15.1971 15.8898 15.6954 16.3881C16.1936 16.8864 16.7952 17.1355 17.5 17.1355ZM17.5 29.2032C20.7327 26.2622 23.1207 23.5947 24.6641 21.2006C26.2075 18.8065 26.9792 16.698 26.9792 14.8751C26.9792 12.007 26.0617 9.66154 24.2266 7.83862C22.3915 6.01571 20.1493 5.10425 17.5 5.10425C14.8507 5.10425 12.6085 6.01571 10.7735 7.83862C8.93841 9.66154 8.02087 12.007 8.02087 14.8751C8.02087 16.698 8.8108 18.8065 10.3907 21.2006C11.9705 23.5947 14.3403 26.2622 17.5 29.2032ZM17.5 32.0834C13.5868 28.7536 10.6641 25.6607 8.73181 22.8048C6.79952 19.9489 5.83337 17.3056 5.83337 14.8751C5.83337 11.2292 7.00612 8.32473 9.3516 6.16154C11.6971 3.99835 14.4132 2.91675 17.5 2.91675C20.5868 2.91675 23.303 3.99835 25.6485 6.16154C27.994 8.32473 29.1667 11.2292 29.1667 14.8751C29.1667 17.3056 28.2006 19.9489 26.2683 22.8048C24.336 25.6607 21.4132 28.7536 17.5 32.0834Z" fill="#48C28F"/>
</svg>
