<svg width="15" height="15" viewBox="0 0 15 15" fill="none" xmlns="http://www.w3.org/2000/svg">
<path d="M7.5 0C5.085 0 1.9505 0.715047 1.9505 0.715047L1.94261 0.725699C0.84269 0.933575 0 2.05047 0 3.40879V7.49933V7.50067V11.5899V11.5912C0.00107334 12.2399 0.19781 12.8669 0.554883 13.3597C0.911957 13.8524 1.40598 14.1786 1.94824 14.2796L1.9505 14.2836C1.9505 14.2836 5.085 15 7.5 15C9.915 15 13.0495 14.2836 13.0495 14.2836L13.0506 14.2823C13.5935 14.1815 14.0881 13.855 14.4454 13.3617C14.8028 12.8684 14.9994 12.2406 15 11.5912V11.5899V7.50067V7.49933V3.40879C14.9992 2.75984 14.8026 2.13251 14.4455 1.6395C14.0884 1.14649 13.5942 0.820122 13.0518 0.719041L13.0495 0.715047C13.0495 0.715047 9.915 0 7.5 0ZM5.76923 4.36218L10.3846 7.49933L5.76923 10.6365V4.36218Z" fill="#54E2A7"/>
</svg>
